<?xml version="1.0" encoding="utf-8"?>
<!-- Generator: Adobe Illustrator 16.0.0, SVG Export Plug-In . SVG Version: 6.00 Build 0)  -->
<!DOCTYPE svg PUBLIC "-//W3C//DTD SVG 1.1//EN" "http://www.w3.org/Graphics/SVG/1.1/DTD/svg11.dtd">
<svg version="1.1"
	 id="svg8" xmlns:dc="http://purl.org/dc/elements/1.1/" xmlns:cc="http://creativecommons.org/ns#" xmlns:inkscape="http://www.inkscape.org/namespaces/inkscape" xmlns:sodipodi="http://sodipodi.sourceforge.net/DTD/sodipodi-0.dtd" xmlns:rdf="http://www.w3.org/1999/02/22-rdf-syntax-ns#" xmlns:svg="http://www.w3.org/2000/svg" sodipodi:docname="CGpersoSF.svg" inkscape:version="0.92.3 (2405546, 2018-03-11)"
	 xmlns="http://www.w3.org/2000/svg" xmlns:xlink="http://www.w3.org/1999/xlink" x="0px" y="0px" width="595.275px"
	 height="951.445px" viewBox="0 0 595.275 951.445" enable-background="new 0 0 595.275 951.445" xml:space="preserve">
<sodipodi:namedview  borderopacity="1.0" showgrid="false" bordercolor="#666666" inkscape:zoom="0.7" inkscape:cy="466.10594" inkscape:cx="450.07406" pagecolor="#ffffff" id="base" inkscape:current-layer="layer1" inkscape:window-maximized="1" inkscape:window-y="31" inkscape:window-x="0" inkscape:document-units="mm" inkscape:window-width="1600" inkscape:pageopacity="0.0" inkscape:window-height="845" inkscape:pageshadow="2">
	</sodipodi:namedview>
<g id="layer1" inkscape:label="Calque 1" inkscape:groupmode="layer">
	<text transform="matrix(1 0 0 1 16.071 49.033)" font-family="'Roboto-Regular'" font-size="30">TYPOS : </text>
	<text transform="matrix(1 0 0 1 9.6428 308.3181)" font-family="'Roboto-Regular'" font-size="30">PALETTE</text>
	<text transform="matrix(1 0 0 1 5.3582 680.1033)" font-family="'Roboto-Regular'" font-size="30">LOGOS</text>
	<g id="g982" transform="matrix(0.09285801,0,0,0.13883491,111.14712,111.22134)">
		<rect id="rect957" x="2293.752" y="1572.636" fill="#DAD6CB" width="528.823" height="1941.456"/>
		<rect id="rect959" x="2857.838" y="1572.636" fill="#FFC11D" width="528.823" height="1941.456"/>
		<rect id="rect961" x="3421.913" y="1572.636" fill="#9FCF39" width="528.834" height="1941.456"/>
		<rect id="rect963" x="3985.999" y="1572.636" fill="#6BD6AE" width="528.823" height="1941.456"/>
		<rect id="rect965" x="4550.074" y="1572.636" fill="#2D3047" width="528.834" height="1941.456"/>
		
			<text id="text1011" transform="matrix(4.6272 0 0 7.2028 2270.5625 3742.2251)" fill="#8E98A7" font-family="'ArialMT'" font-size="37.0101">dad6cb-ffc11d-9fcf39-6bd6ae-2d3047</text>
	</g>
	<g id="g1009" transform="matrix(0.10254644,0,0,0.15136532,-1.6590941,109.08672)">
		<rect id="rect984" x="100.714" y="1446.936" fill="#5E565A" width="510.242" height="1788.665"/>
		<rect id="rect986" x="644.972" y="1446.936" fill="#EBEBD3" width="510.232" height="1788.665"/>
		<rect id="rect988" x="1189.221" y="1446.936" fill="#FFC11D" width="510.242" height="1788.665"/>
		<rect id="rect990" x="1733.479" y="1446.936" fill="#E54177" width="510.251" height="1788.665"/>
		<rect id="rect992" x="2277.738" y="1446.936" fill="#031926" width="510.242" height="1788.665"/>
		
			<text id="text994" transform="matrix(4.4072 0 0 6.6065 59.7452 3454.604)" fill="#8E98A7" font-family="'ArialMT'" font-size="36.4408">5e565a-ebebd3-ffc11d-e54177-031926</text>
	</g>
	<text transform="matrix(1 0 0 1 10.7136 274.4411)" font-family="'Roboto-Regular'" font-size="12.9208">&lt;link href=&quot;https://fonts.googleapis.com/css?family=Knewave|Roboto:100,400,700&quot; rel=&quot;stylesheet&quot;&gt;;</text>
	
		<image overflow="visible" enable-background="new    " width="348" height="187" id="image1103" xlink:href="../../../../../Users/stagiaire/Desktop/F0605980.png"  transform="matrix(0.6182 0 0 0.6182 11.0047 61.4225)">
	</image>
	
		<image overflow="visible" enable-background="new    " width="321" height="99" id="image1114" xlink:href="../../../../../Users/stagiaire/Desktop/F0605981.png"  transform="matrix(0.75 0 0 0.75 246.0535 9.7653)">
	</image>
	
		<image overflow="visible" enable-background="new    " width="328" height="85" id="image1125" xlink:href="../../../../../Users/stagiaire/Desktop/F0605987.png"  transform="matrix(0.75 0 0 0.75 247.1257 91.5153)">
	</image>
	
		<image overflow="visible" enable-background="new    " width="346" height="143" id="image1136" xlink:href="../../../../../Users/stagiaire/Desktop/F0605982.png"  transform="matrix(0.75 0 0 0.75 249.6961 145.6218)">
	</image>
	<text transform="matrix(1 0 0 1 415.7136 289.1931)" font-family="'Roboto-Regular'" font-size="11.1848">    font-family: &apos;Knewave&apos;, cursive;</text>
	<text transform="matrix(1 0 0 1 415.7136 317.154)" font-family="'Roboto-Regular'" font-size="11.1848">    font-family: &apos;Roboto&apos;, sans-serif;</text>
	<g id="g1396" transform="matrix(0.04974863,0,0,0.04974863,85.725005,247.0337)">
		<g id="g1312">
			<g id="g1310">
				<path id="path1308" inkscape:connector-curvature="0" d="M262.163,9736.143l-447.559-447.598
					c-48.446-48.446-127.28-48.446-175.726,0l-698.526,698.506c-24.223,24.224-36.335,56.043-36.335,87.863
					s12.112,63.641,36.335,87.863l112.302,112.302l-123.314,123.314c-5.536,5.536-8.303,12.798-8.303,20.042
					c0,7.264,2.768,14.506,8.303,20.042c11.071,11.071,29.013,11.071,40.084,0l123.314-123.314l51.371,51.371l-288.538,288.538
					c-5.536,5.536-8.303,12.799-8.303,20.043c0,7.263,2.768,14.506,8.303,20.041c11.071,11.071,29.013,11.071,40.084,0
					l288.538-288.538l203.757,203.758c48.446,48.446,127.28,48.446,175.726,0l698.487-698.526
					c23.477-23.478,36.394-54.669,36.394-87.863C298.557,9790.813,285.64,9759.621,262.163,9736.143z M-544.778,10586.801
					c-9.952-3.161-19.316-8.638-27.188-16.51l-447.598-447.598c-17.667-17.667-23.418-42.754-17.392-65.309h492.178V10586.801
					L-544.778,10586.801z M-647.246,10000.693l84.055-84.055c11.071-11.07,11.071-29.012,0-40.084
					c-11.071-11.07-29.013-11.07-40.084,0l-124.159,124.139h-82.583l256.267-256.246c11.071-11.072,11.071-29.014,0-40.084
					c-11.071-11.072-29.013-11.072-40.084,0l-296.351,296.33h-102.938l645.643-645.623v578.059
					c0,37.257-30.308,67.564-67.565,67.564H-647.246z M222.079,9871.766l-698.487,698.525c-3.612,3.593-7.538,6.655-11.68,9.285
					v-522.191h73.042c68.508,0,124.256-55.729,124.256-124.256v-73.043H34.124l-164.027,164.026
					c-5.536,5.536-8.303,12.799-8.303,20.042c0,7.264,2.768,14.506,8.303,20.042c11.071,11.071,29.013,11.071,40.084,0
					l204.111-204.091v-0.02h117.131C228.773,9864.268,225.671,9868.193,222.079,9871.766L222.079,9871.766z M-290.789,9803.414
					v-492.178c22.555-6.025,47.642-0.274,65.309,17.393l447.559,447.578c7.754,7.773,13.368,17.039,16.607,27.207H-290.789
					L-290.789,9803.414z"/>
			</g>
		</g>
		<g id="g1318">
			<g id="g1316">
				<path id="path1314" inkscape:connector-curvature="0" d="M-484.358,9634.99c-5.28-5.299-12.583-8.303-20.042-8.303
					c-7.479,0-14.762,3.004-20.042,8.303c-5.28,5.281-8.303,12.564-8.303,20.043c0,7.459,3.023,14.781,8.303,20.042
					c5.28,5.28,12.563,8.304,20.042,8.304c7.459,0,14.762-3.023,20.042-8.304c5.261-5.261,8.303-12.583,8.303-20.042
					C-476.055,9647.555-479.097,9640.271-484.358,9634.99z"/>
			</g>
		</g>
		<g id="g1324">
			<g id="g1322">
				<path id="path1320" inkscape:connector-curvature="0" d="M-1104.247,10472.045c-5.261-5.281-12.583-8.304-20.022-8.304
					c-7.459,0-14.781,3.022-20.042,8.304c-5.28,5.26-8.303,12.582-8.303,20.041c0,7.46,3.023,14.762,8.303,20.043
					c5.261,5.26,12.583,8.303,20.042,8.303c7.479,0,14.762-3.043,20.022-8.303c5.32-5.281,8.323-12.583,8.323-20.043
					C-1095.924,10484.627-1098.927,10477.305-1104.247,10472.045z"/>
			</g>
		</g>
		<g id="g1330">
			<g id="g1328">
				<path id="path1326" inkscape:connector-curvature="0" d="M-792.683,10526.32c-11.071-11.07-29.032-11.07-40.104,0
					l-128.732,128.732c-5.535,5.536-8.303,12.799-8.303,20.042c0,7.264,2.768,14.507,8.303,20.042
					c11.071,11.071,29.033,11.071,40.084,0l128.751-128.732C-781.631,10555.334-781.631,10537.393-792.683,10526.32z"/>
			</g>
		</g>
		<g id="g1332">
		</g>
		<g id="g1334">
		</g>
		<g id="g1336">
		</g>
		<g id="g1338">
		</g>
		<g id="g1340">
		</g>
		<g id="g1342">
		</g>
		<g id="g1344">
		</g>
		<g id="g1346">
		</g>
		<g id="g1348">
		</g>
		<g id="g1350">
		</g>
		<g id="g1352">
		</g>
		<g id="g1354">
		</g>
		<g id="g1356">
		</g>
		<g id="g1358">
		</g>
		<g id="g1360">
		</g>
	</g>
	<g id="g1465" transform="matrix(0.05078769,0,0,0.05078769,130.16089,247.5486)">
		<g id="g1406">
			<g id="g1404">
				<path id="path1398" inkscape:connector-curvature="0" d="M1537.45,9913.486c-27.496-28.631-60.665-43.937-95.814-43.937
					c-34.861,0-68.318,15.018-96.949,43.647l-89.565,89.297c-7.364-3.98-14.748-7.653-21.824-11.346
					c-10.21-5.095-19.843-9.921-28.073-15.017c-83.893-53.3-160.151-122.733-233.276-212.606
					c-35.438-44.782-59.242-82.488-76.548-120.753c23.247-21.247,44.783-43.36,65.761-64.626
					c7.941-7.941,15.882-16.152,23.824-24.094c59.511-59.529,59.511-136.635,0-196.166l-77.394-77.374
					c-8.787-8.787-17.863-17.862-26.362-26.938c-16.998-17.574-34.861-35.707-53.281-52.724
					c-27.497-27.208-60.377-41.667-94.968-41.667c-34.592,0-68.029,14.459-96.372,41.667c-0.288,0.288-0.288,0.288-0.577,0.577
					l-96.372,97.217c-36.284,36.284-56.974,80.51-61.511,131.811c-6.807,82.777,17.575,159.882,36.284,210.337
					c45.917,123.868,114.523,238.68,216.855,361.702c124.157,148.249,273.541,265.311,444.172,347.8
					c65.203,30.899,152.23,67.472,249.448,73.701c5.96,0.289,12.19,0.577,17.863,0.577c65.472,0,120.465-23.535,163.555-70.299
					c0.289-0.576,0.846-0.865,1.135-1.422c14.748-17.863,31.746-34.016,49.609-51.301c12.19-11.634,24.67-23.824,36.841-36.572
					c28.073-29.189,42.821-63.203,42.821-98.084c0-35.148-15.036-68.875-43.667-97.217L1537.45,9913.486z M1638.937,10211.966
					C1638.648,10211.966,1638.648,10212.254,1638.937,10211.966c-11.056,11.902-22.401,22.689-34.592,34.592
					c-18.42,17.574-37.129,35.995-54.704,56.685c-28.631,30.611-62.357,45.071-106.582,45.071c-4.25,0-8.787,0-13.037-0.288
					c-84.201-5.385-162.44-38.265-221.105-66.318c-160.44-77.682-301.325-187.938-418.387-327.688
					c-96.66-116.504-161.305-224.221-204.107-339.878c-26.362-70.567-35.995-125.56-31.746-177.438
					c2.846-33.168,15.594-60.664,39.129-84.199l96.66-96.66c13.883-13.037,28.631-20.113,43.071-20.113
					c17.863,0,32.323,10.768,41.398,19.844c0.288,0.27,0.558,0.557,0.846,0.846c17.286,16.152,33.727,32.881,51.032,50.743
					c8.788,9.057,17.844,18.132,26.919,27.497l77.394,77.373c30.035,30.055,30.035,57.84,0,87.873
					c-8.229,8.23-16.171,16.44-24.381,24.382c-23.804,24.382-46.494,47.052-71.144,69.164c-0.577,0.577-1.135,0.846-1.423,1.423
					c-24.382,24.381-19.844,48.186-14.748,64.338c0.288,0.846,0.577,1.711,0.865,2.557c20.112,48.764,48.455,94.68,91.545,149.385
					l0.289,0.288c78.239,96.372,160.729,171.496,251.716,229.027c11.614,7.384,23.516,13.325,34.861,18.997
					c10.21,5.096,19.843,9.922,28.073,15.018c1.134,0.576,2.269,1.423,3.403,2c9.633,4.807,18.709,7.076,28.054,7.076
					c23.536,0,38.264-14.748,43.091-19.556l96.948-96.948c9.633-9.634,24.939-21.267,42.802-21.267
					c17.575,0,32.015,11.056,40.802,20.708c0.289,0.27,0.289,0.27,0.577,0.559l156.191,156.19
					C1667.837,10152.166,1667.837,10181.932,1638.937,10211.966z"/>
				<path id="path1400" inkscape:connector-curvature="0" d="M1201.822,9400.978c74.279,12.479,141.731,47.628,195.589,101.487
					c53.858,53.857,88.738,121.311,101.487,195.589c3.115,18.709,19.267,31.745,37.707,31.745c2.269,0,4.249-0.288,6.518-0.557
					c20.978-3.404,34.861-23.248,31.458-44.226c-15.306-89.853-57.819-171.784-122.734-236.699
					c-64.914-64.915-146.846-107.428-236.699-122.733c-20.978-3.403-40.533,10.479-44.225,31.188
					C1167.25,9377.461,1180.844,9397.574,1201.822,9400.978L1201.822,9400.978z"/>
				<path id="path1402" inkscape:connector-curvature="0" d="M1817.509,9673.961c-25.227-147.98-94.968-282.617-202.107-389.756
					c-107.159-107.159-241.794-176.881-389.756-202.127c-20.708-3.673-40.264,10.498-43.937,31.188
					c-3.403,20.979,10.479,40.533,31.458,44.225c132.098,22.383,252.563,85.027,348.377,180.572
					c95.814,95.795,158.171,216.279,180.572,348.357c3.115,18.709,19.267,31.766,37.688,31.766c2.269,0,4.249-0.289,6.519-0.577
					C1807.03,9714.494,1821.201,9694.65,1817.509,9673.961z"/>
			</g>
		</g>
		<g id="g1408">
		</g>
		<g id="g1410">
		</g>
		<g id="g1412">
		</g>
		<g id="g1414">
		</g>
		<g id="g1416">
		</g>
		<g id="g1418">
		</g>
		<g id="g1420">
		</g>
		<g id="g1422">
		</g>
		<g id="g1424">
		</g>
		<g id="g1426">
		</g>
		<g id="g1428">
		</g>
		<g id="g1430">
		</g>
		<g id="g1432">
		</g>
		<g id="g1434">
		</g>
		<g id="g1436">
		</g>
	</g>
	<g id="g1528" transform="matrix(0.44727487,0,0,0.44727487,171.36658,244.79273)">
		<g id="g1471">
			<path id="path1467" inkscape:connector-curvature="0" d="M310.77,1095.263c10.939,0,19.84-8.904,19.84-19.845
				c0-10.939-8.904-19.842-19.84-19.842c-10.941,0-19.842,8.904-19.842,19.842C290.927,1086.359,299.827,1095.263,310.77,1095.263z
				 M310.77,1061.246c7.812,0,14.17,6.358,14.17,14.172c0,7.816-6.358,14.174-14.17,14.174c-7.814,0-14.174-6.358-14.174-14.174
				C296.595,1067.604,302.955,1061.246,310.77,1061.246z"/>
			<path id="path1469" inkscape:connector-curvature="0" d="M365.415,1126.443h-20.301l8.637-12.474
				c16.314-21.744,13.954-57.488-5.048-76.483c-10.264-10.268-23.917-15.923-38.438-15.923c-14.519,0-28.17,5.655-38.438,15.923
				c-19,18.995-21.362,54.741-5.113,76.398l8.696,12.561h-21.297l-31.045,65.195h173.389L365.415,1126.443z M271.314,1110.568
				c-14.738-19.652-12.622-51.929,4.526-69.077c9.196-9.194,21.425-14.262,34.429-14.262c13.004,0,25.233,5.068,34.427,14.262
				c17.15,17.148,19.264,49.429,4.463,69.162l-38.892,56.163l-27.958-40.372l0,0L271.314,1110.568z M257.696,1132.111h21.639
				l30.932,44.667l30.925-44.667h20.637l25.65,53.859H232.048L257.696,1132.111z"/>
		</g>
		<g id="g1473">
		</g>
		<g id="g1475">
		</g>
		<g id="g1477">
		</g>
		<g id="g1479">
		</g>
		<g id="g1481">
		</g>
		<g id="g1483">
		</g>
		<g id="g1485">
		</g>
		<g id="g1487">
		</g>
		<g id="g1489">
		</g>
		<g id="g1491">
		</g>
		<g id="g1493">
		</g>
		<g id="g1495">
		</g>
		<g id="g1497">
		</g>
		<g id="g1499">
		</g>
		<g id="g1501">
		</g>
	</g>
</g>
<g>
	<g>
		<g>
			<polygon points="439.718,727.755 439.777,728.213 439.092,728.354 439.001,729.329 439.821,729.329 440.914,729.224 
				441.477,728.553 440.879,728.321 440.551,727.942 440.058,727.144 439.821,726.014 438.896,726.204 438.636,726.601 
				438.636,727.05 439.081,727.356 			"/>
			<polygon points="438.929,728.131 438.977,727.519 438.434,727.284 437.673,727.461 437.11,728.366 437.11,728.952 
				437.767,728.952 			"/>
			<path d="M423.277,730.724l-0.168,0.431h-0.811v0.419h0.192c0,0,0.014,0.089,0.027,0.205l0.497-0.042l0.311-0.192l0.081-0.39
				l0.402-0.034l0.158-0.326l-0.369-0.076L423.277,730.724z"/>
			<polygon points="421.19,731.483 421.158,731.893 421.744,731.843 421.806,731.432 421.451,731.155 			"/>
			<path d="M456.431,744.543c-0.01-0.901-0.055-1.796-0.141-2.677c-0.283-2.937-0.985-5.751-2.037-8.39
				c-0.079-0.197-0.151-0.396-0.235-0.591c-1.401-3.312-3.369-6.325-5.78-8.93c-0.158-0.168-0.317-0.336-0.479-0.501
				c-0.454-0.473-0.922-0.935-1.406-1.376c-5.479-4.985-12.753-8.03-20.727-8.03c-8.041,0-15.368,3.099-20.86,8.16
				c-1.28,1.182-2.456,2.469-3.522,3.848c-4.024,5.207-6.429,11.728-6.429,18.805c0,16.99,13.823,30.813,30.813,30.813
				c11.951,0,22.326-6.845,27.435-16.814c1.093-2.133,1.943-4.405,2.517-6.786c0.146-0.604,0.271-1.212,0.381-1.825
				c0.311-1.751,0.479-3.55,0.479-5.387C456.438,744.755,456.432,744.648,456.431,744.543z M450.632,732.227l0.178-0.2
				c0.235,0.455,0.454,0.918,0.663,1.386l-0.292-0.01l-0.549,0.075V732.227z M446.179,726.851l0.006-1.377
				c0.484,0.514,0.95,1.042,1.396,1.589l-0.558,0.827l-1.938-0.019l-0.123-0.403L446.179,726.851z M409.011,723.43v-0.053h0.617
				l0.052-0.21h1.011v0.439l-0.29,0.389h-1.392L409.011,723.43L409.011,723.43z M409.996,724.806c0,0,0.616-0.106,0.671-0.106
				c0.053,0,0,0.616,0,0.616l-1.393,0.088l-0.265-0.315L409.996,724.806z M452.595,737.037h-2.256l-1.373-1.021l-1.446,0.141v0.882
				h-0.458l-0.493-0.352l-2.504-0.637v-1.621l-3.173,0.248l-0.984,0.526h-1.26l-0.618-0.063l-1.529,0.85v1.6l-3.126,2.255
				l0.261,0.963h0.634l-0.166,0.919l-0.445,0.163l-0.024,2.397l2.702,3.077h1.177l0.069-0.188h2.114l0.61-0.564h1.197l0.658,0.66
				l1.787,0.185l-0.236,2.377l1.981,3.502l-1.045,1.994l0.072,0.94l0.82,0.821v2.261l1.081,1.453v1.878h0.934
				c-5.191,6.372-13.092,10.455-21.934,10.455c-15.59,0.001-28.273-12.686-28.273-28.276c0-3.926,0.807-7.666,2.257-11.066v-0.883
				l1.012-1.228c0.351-0.663,0.728-1.311,1.13-1.939l0.044,0.515l-1.173,1.426c-0.363,0.687-0.703,1.39-1.012,2.109v1.608
				l1.175,0.565v2.235l1.126,1.925l0.916,0.141l0.119-0.659l-1.082-1.667l-0.21-1.622h0.634l0.269,1.669l1.562,2.279l-0.402,0.735
				l0.994,1.52l2.467,0.611v-0.398l0.986,0.141l-0.093,0.705l0.775,0.142l1.197,0.327l1.69,1.927l2.161,0.163l0.213,1.764
				l-1.48,1.034l-0.068,1.574l-0.211,0.963l2.14,2.678l0.163,0.919c0,0,0.774,0.21,0.87,0.21c0.094,0,1.739,1.245,1.739,1.245v4.842
				l0.586,0.163l-0.398,2.233l0.986,1.316l-0.183,2.213l1.306,2.292l1.673,1.463l1.684,0.031l0.164-0.541l-1.236-1.042l0.071-0.519
				l0.222-0.634l0.048-0.646l-0.837-0.024l-0.422-0.529l0.693-0.668l0.094-0.506l-0.773-0.221l0.044-0.471l1.105-0.167l1.681-0.808
				l0.563-1.034l1.764-2.256l-0.4-1.764l0.541-0.939l1.62,0.05l1.092-0.863l0.354-3.403l1.211-1.537l0.211-0.987l-1.104-0.354
				l-0.729-1.195l-2.49-0.023l-1.974-0.753l-0.095-1.408l-0.659-1.152l-1.786-0.025l-1.03-1.62l-0.917-0.446l-0.047,0.492
				l-1.668,0.1l-0.609-0.85l-1.74-0.354l-1.434,1.655l-2.256-0.382l-0.165-2.542l-1.646-0.281l0.66-1.248l-0.188-0.715l-2.164,1.445
				l-1.361-0.166l-0.485-1.064l0.296-1.096l0.753-1.382l1.727-0.875l3.335-0.001l-0.009,1.018l1.199,0.557l-0.096-1.736l0.865-0.869
				l1.742-1.146l0.119-0.807l1.739-1.811l1.85-1.023l-0.163-0.134l1.251-1.18l0.459,0.122l0.211,0.265l0.475-0.527l0.116-0.053
				l-0.521-0.072l-0.528-0.176v-0.508l0.279-0.23h0.618l0.282,0.125l0.243,0.494l0.3-0.045v-0.044l0.087,0.029l0.866-0.135
				l0.123-0.423l0.494,0.125v0.459l-0.459,0.314h0.002l0.066,0.504l1.569,0.483c0,0,0.001,0.008,0.004,0.021l0.361-0.031
				l0.024-0.681l-1.245-0.565l-0.071-0.328l1.033-0.353l0.046-0.988l-1.079-0.658l-0.072-1.666l-1.479,0.729h-0.54l0.142-1.271
				l-2.016-0.476l-0.834,0.632v1.921l-1.499,0.476l-0.6,1.253l-0.651,0.104v-1.602l-1.411-0.195l-0.703-0.458l-0.284-1.038
				l2.521-1.474l1.233-0.377l0.125,0.829l0.687-0.035l0.055-0.417l0.718-0.103l0.014-0.146l-0.311-0.129l-0.07-0.44l0.884-0.074
				l0.534-0.556l0.028-0.041l0.005,0.003l0.163-0.167l1.856-0.233l0.822,0.694l-2.153,1.149l2.74,0.646l0.354-0.916h1.198
				l0.423-0.799l-0.847-0.212v-1.01l-2.655-1.176l-1.832,0.211l-1.035,0.541l0.072,1.314l-1.082-0.164l-0.166-0.728l1.035-0.939
				l-1.879-0.095l-0.539,0.164l-0.235,0.634l0.705,0.118l-0.141,0.704l-1.198,0.07l-0.188,0.471l-1.736,0.047
				c0,0-0.048-0.984-0.117-0.984s1.361-0.024,1.361-0.024l1.036-1.012l-0.566-0.283l-0.751,0.729l-1.246-0.07l-0.753-1.033h-1.598
				l-1.668,1.245h1.527l0.141,0.448l-0.397,0.368l1.693,0.047l0.258,0.61l-1.903-0.07l-0.095-0.471l-1.196-0.26l-0.635-0.353
				l-1.426,0.013c4.668-3.4,10.406-5.413,16.61-5.413c7.15,0,13.685,2.673,18.667,7.064l-0.335,0.6l-1.305,0.513l-0.549,0.597
				l0.126,0.695l0.673,0.094l0.406,1.015l1.161-0.468l0.189,1.354h-0.35l-0.952-0.14l-1.058,0.177l-1.023,1.444l-1.463,0.229
				l-0.212,1.251l0.618,0.146l-0.181,0.804l-1.45-0.29l-1.332,0.29l-0.283,0.742l0.23,1.557l0.78,0.366l1.313-0.008l0.886-0.08
				l0.27-0.704l1.384-1.8l0.912,0.188l0.897-0.813l0.167,0.634l2.208,1.489l-0.271,0.362l-0.993-0.054l0.383,0.542l0.61,0.136
				l0.718-0.3l-0.015-0.863l0.317-0.161l-0.256-0.271l-1.474-0.821l-0.388-1.093h1.225l0.392,0.39l1.055,0.909l0.044,1.099
				l1.093,1.163l0.407-1.594l0.757-0.413l0.144,1.304l0.736,0.811l1.477-0.024c0.284,0.733,0.54,1.479,0.765,2.242L452.595,737.037z
				 M411.62,728.048l0.739-0.354l0.669,0.161l-0.229,0.898l-0.724,0.229L411.62,728.048z M415.547,730.163v0.582h-1.69l-0.634-0.176
				l0.158-0.406l0.813-0.336h1.11v0.336H415.547L415.547,730.163z M416.325,730.974v0.563l-0.423,0.273l-0.526,0.097
				c0,0,0-0.846,0-0.934L416.325,730.974L416.325,730.974z M415.848,730.745v-0.671l0.582,0.529L415.848,730.745z M416.113,732.101
				v0.549l-0.403,0.405h-0.897l0.141-0.615l0.425-0.037l0.088-0.213L416.113,732.101z M413.876,730.974h0.933l-1.196,1.674
				l-0.494-0.265l0.106-0.705L413.876,730.974z M417.699,731.908v0.547h-0.897l-0.245-0.354v-0.511h0.069L417.699,731.908z
				 M416.87,731.155l0.256-0.269l0.433,0.269l-0.347,0.285L416.87,731.155z M453.054,738.465l0.088-0.104
				c0.037,0.158,0.076,0.319,0.111,0.48L453.054,738.465z"/>
			<path d="M399.606,732.912v0.883c0.309-0.721,0.647-1.423,1.012-2.109L399.606,732.912z"/>
		</g>
	</g>
</g>
<g>
	<path fill="#C03A2B" d="M533.432,722.34c3.056-7.242,10.036-12.304,18.155-12.304c10.937,0,18.813,9.355,19.804,20.507
		c0,0,0.535,2.769-0.642,7.752c-1.603,6.786-5.368,12.815-10.444,17.418l-26.873,23.976l-26.42-23.978
		c-5.077-4.601-8.843-10.632-10.445-17.419c-1.176-4.981-0.642-7.75-0.642-7.75c0.99-11.15,8.867-20.508,19.804-20.508
		C523.849,710.035,530.376,715.097,533.432,722.34z"/>
	<path fill="#ED7161" d="M504.889,734.381c-0.837,0-1.515-0.679-1.515-1.516c0-8.349,6.793-15.142,15.143-15.142
		c0.837,0,1.515,0.677,1.515,1.514c0,0.838-0.678,1.516-1.515,1.516c-6.679,0-12.113,5.435-12.113,12.112
		C506.403,733.703,505.726,734.381,504.889,734.381z"/>
</g>
<g>
	<path d="M122.322,853.643c-0.992,0-1.9-0.661-2.172-1.665c-0.325-1.2,0.385-2.438,1.586-2.761l0.092-0.024
		c1.203-0.314,2.435,0.405,2.748,1.609c0.315,1.202-0.406,2.433-1.609,2.747l-0.055,0.015
		C122.715,853.618,122.517,853.643,122.322,853.643z"/>
	<path d="M137.491,875.258c-1.07,0-2.127-0.28-3.08-0.83c-1.429-0.825-2.451-2.157-2.879-3.751
		c-0.321-1.201,0.392-2.437,1.594-2.758c1.2-0.322,2.437,0.391,2.757,1.593c0.116,0.432,0.395,0.793,0.781,1.017
		c0.387,0.226,0.839,0.283,1.271,0.167c0.433-0.114,0.794-0.393,1.018-0.78c0.225-0.387,0.283-0.839,0.167-1.271
		c-0.322-1.202,0.392-2.436,1.593-2.758c1.2-0.322,2.437,0.391,2.758,1.592c0.428,1.594,0.208,3.259-0.617,4.688
		c-0.825,1.429-2.157,2.45-3.751,2.878C138.567,875.188,138.027,875.258,137.491,875.258z"/>
	<path d="M118.014,880.478c-1.07,0-2.126-0.281-3.08-0.83c-1.43-0.825-2.451-2.158-2.878-3.753c-0.322-1.2,0.392-2.435,1.593-2.757
		c1.201-0.323,2.436,0.391,2.758,1.592c0.116,0.432,0.393,0.793,0.781,1.017c0.387,0.226,0.838,0.283,1.271,0.167
		c0.433-0.114,0.793-0.392,1.018-0.778c0.225-0.39,0.282-0.84,0.167-1.271c-0.322-1.201,0.392-2.436,1.593-2.758
		c1.2-0.322,2.435,0.391,2.757,1.593c0.428,1.595,0.208,3.26-0.617,4.688c-0.824,1.43-2.157,2.451-3.751,2.879
		C119.091,880.408,118.551,880.478,118.014,880.478z"/>
	<path d="M131.575,895.23c-1.604,0-3.187-0.42-4.613-1.244c-2.141-1.234-3.672-3.23-4.312-5.619
		c-0.322-1.202,0.39-2.437,1.592-2.759c1.201-0.321,2.437,0.392,2.758,1.593c0.328,1.227,1.115,2.251,2.215,2.887
		c1.099,0.634,2.379,0.803,3.604,0.475c2.531-0.678,4.039-3.29,3.361-5.821c-0.322-1.2,0.39-2.436,1.592-2.757
		c1.2-0.323,2.435,0.393,2.757,1.592c1.321,4.931-1.614,10.017-6.544,11.335C133.187,895.125,132.379,895.23,131.575,895.23z"/>
	<path d="M160.892,871.82c-3.569-13.32-15.209-22.82-28.965-23.645c-1.244-0.072-2.309,0.872-2.383,2.112
		c-0.073,1.242,0.872,2.309,2.113,2.384c11.816,0.705,21.817,8.869,24.883,20.313c3.92,14.628-4.792,29.716-19.419,33.636
		c-2.339,0.627-4.709,0.93-7.055,0.93c-9.191,0-18.017-4.637-23.127-12.548c2.355-4.452,3.693-9.522,3.693-14.9
		c0-5.379-1.337-10.449-3.692-14.901c2.155-3.338,5.038-6.204,8.375-8.314c1.05-0.665,1.363-2.058,0.698-3.107
		s-2.057-1.363-3.106-0.698c-3.309,2.095-6.233,4.823-8.577,7.984c-5.832-7.84-15.163-12.93-25.663-12.93
		c-17.627,0-31.967,14.341-31.967,31.968c0,17.626,14.34,31.966,31.967,31.966c10.502,0,19.838-5.091,25.668-12.936
		c3.437,4.615,8.123,8.295,13.474,10.509c3.915,1.62,8.021,2.436,12.16,2.436c2.775,0,5.564-0.366,8.317-1.104
		C155.313,906.409,165.455,888.845,160.892,871.82z M78.669,907.563c-15.144,0-27.463-12.319-27.463-27.462
		c0-15.145,12.319-27.464,27.463-27.464s27.463,12.319,27.463,27.464C106.132,895.244,93.812,907.563,78.669,907.563z"/>
	<path d="M72.514,877.577c-1.244,0-2.252-1.009-2.252-2.252c0-0.924-0.751-1.675-1.675-1.675s-1.675,0.751-1.675,1.675
		c0,1.243-1.008,2.252-2.251,2.252s-2.252-1.009-2.252-2.252c0-3.405,2.771-6.178,6.178-6.178s6.18,2.771,6.18,6.178
		C74.765,876.568,73.757,877.577,72.514,877.577z"/>
	<path d="M92.679,877.577c-1.244,0-2.253-1.009-2.253-2.252c0-0.924-0.751-1.675-1.674-1.675c-0.924,0-1.675,0.751-1.675,1.675
		c0,1.243-1.009,2.252-2.251,2.252c-1.244,0-2.252-1.009-2.252-2.252c0-3.405,2.772-6.178,6.179-6.178s6.178,2.771,6.178,6.178
		C94.929,876.568,93.921,877.577,92.679,877.577z"/>
	<path d="M78.669,895.441c-5.104,0-9.255-4.151-9.255-9.256c0-1.243,1.008-2.252,2.251-2.252s2.252,1.009,2.252,2.252
		c0,2.621,2.132,4.752,4.752,4.752s4.752-2.132,4.752-4.752c0-1.243,1.009-2.252,2.252-2.252c1.244,0,2.251,1.009,2.251,2.252
		C87.924,891.29,83.772,895.441,78.669,895.441z"/>
	<path d="M104.38,830.061c-1.243,0-2.251-1.009-2.251-2.252V817.06c0-1.244,1.009-2.252,2.251-2.252
		c1.243,0,2.252,1.008,2.252,2.252v10.749C106.632,829.053,105.624,830.061,104.38,830.061z"/>
	<path d="M104.38,839.57c-0.593,0-1.172-0.241-1.592-0.66c-0.419-0.418-0.658-0.999-0.658-1.592c0-0.592,0.238-1.173,0.658-1.592
		s0.999-0.659,1.592-0.659c0.594,0,1.173,0.24,1.592,0.659c0.421,0.419,0.659,1,0.659,1.592c0,0.593-0.238,1.174-0.659,1.592
		C105.553,839.329,104.973,839.57,104.38,839.57z"/>
	<path d="M92.764,835.669c-0.576,0-1.152-0.222-1.593-0.66l-7.465-7.465c-0.878-0.878-0.878-2.305,0-3.185
		c0.88-0.88,2.307-0.88,3.186,0l7.465,7.465c0.878,0.879,0.878,2.306,0,3.185C93.917,835.447,93.341,835.669,92.764,835.669z"/>
	<path d="M116.134,835.469c-0.575,0-1.15-0.22-1.591-0.659c-0.88-0.879-0.88-2.304-0.001-3.186l7.257-7.262
		c0.881-0.878,2.306-0.879,3.187,0c0.879,0.879,0.879,2.305,0,3.186l-7.257,7.262C117.286,835.25,116.71,835.469,116.134,835.469z"
		/>
</g>
<g>
	<g>
		<path fill="#030104" d="M316.394,855.503V882.9c0,0-5.863,1.156-7.071,1.307c-1.204,0.152-4.986,1.375-7.729-1.262
			c-4.229-4.054-19.258-18.997-19.258-18.997s-2.59-2.543-6.75-0.346c-3.818,2.013-9.479,4.963-11.844,6.111
			c-4.47,2.379-8.174-1.396-8.174-4.271c0-2.229,1.392-3.745,3.381-4.857c5.391-3.269,16.755-9.646,21.489-12.161
			c2.877-1.53,4.949-1.661,8.897,1.666c4.865,4.092,9.195,7.819,9.195,7.819s1.411,1.18,3.663,0.704
			C307.723,857.444,316.394,855.503,316.394,855.503z M256.583,901.925c0.729-1.869,0.485-3.961-0.911-5.396
			c-1.254-1.283-3.084-1.622-4.83-1.221c0.488-1.731,0.22-3.574-1.042-4.875c-1.257-1.279-3.084-1.624-4.829-1.221
			c0.484-1.729,0.216-3.571-1.045-4.867c-1.975-2.025-5.391-1.938-7.635,0.2c-2.231,2.143-3.662,6.021-1.669,8.307
			c1.989,2.272,4.273,0.891,6.017,0.493c-0.485,1.728-1.938,3.336-0.148,5.599c1.787,2.264,4.274,0.89,6.018,0.497
			c-0.485,1.721-1.875,3.491-0.154,5.589c1.734,2.104,4.577,0.982,6.454,0.399c-0.725,1.861-2.275,3.871-0.282,6.12
			c1.989,2.267,6.585,1.218,8.831-0.926c2.239-2.142,2.454-5.535,0.483-7.568C260.48,901.663,258.452,901.339,256.583,901.925z
			 M297.554,887.671c-16.232-16.229-8.599-8.594-17.332-17.347c0,0-2.626-2.612-6.085-1.096c-2.43,1.064-5.557,2.515-7.909,3.622
			c-2.585,1.354-4.446,1.775-5.32,1.77c-4.999-0.032-9.054-4.05-9.054-9.043c0-3.239,1.72-6.06,4.285-7.659
			c3.605-2.496,11.908-6.911,11.908-6.911s-2.528-3.205-8.068-3.205c-5.539,0-17.11,7.58-17.11,7.58s-3.283,2.103-7.962,0.209
			l-9.02-3.142V883.8c0,0,2.575,0.746,4.89,1.69c0.521-1.491,1.366-2.867,2.536-4.004c3.839-3.657,10.203-3.695,13.694-0.099
			c1.053,1.094,1.787,2.396,2.161,3.84c1.408,0.435,2.683,1.204,3.707,2.26c1.056,1.086,1.787,2.396,2.165,3.831
			c1.406,0.437,2.679,1.207,3.707,2.264c1.158,1.194,1.929,2.637,2.289,4.198c1.47,0.428,2.797,1.226,3.867,2.318
			c2.099,2.156,2.844,5.081,2.393,7.901c0.003,0,0.012,0,0.015,0.007c0.034,0.046,1.301,1.457,2.09,2.253
			c1.547,1.55,4.074,1.55,5.626,0c1.542-1.548,1.549-4.069,0-5.626c-0.056-0.056-5.583-5.837-5.138-6.285
			c0.44-0.445,7.481,6.882,7.613,7.017c1.546,1.546,4.071,1.546,5.623,0c1.548-1.548,1.545-4.069,0-5.623
			c-0.076-0.071-0.393-0.376-0.511-0.497c0,0-6.982-6.22-6.451-6.751c0.538-0.533,9.211,7.56,9.226,7.56
			c1.56,1.404,3.96,1.395,5.46-0.106c1.459-1.46,1.49-3.767,0.197-5.323c-0.028-0.081-6.609-6.961-6.096-7.479
			c0.521-0.524,7.033,6.183,7.048,6.196c1.542,1.545,4.07,1.545,5.623,0c1.546-1.546,1.546-4.071,0-5.63
			C297.6,887.699,297.573,887.684,297.554,887.671z"/>
	</g>
</g>
<g>
	<g>
		<path d="M399.607,844.614c-18.176,0-32.963,14.786-32.963,32.962c0,18.178,14.787,32.963,32.963,32.963
			s32.962-14.785,32.962-32.963C432.569,859.4,417.783,844.614,399.607,844.614z M399.607,908.341
			c-16.963,0-30.765-13.803-30.765-30.767c0-16.963,13.802-30.765,30.765-30.765c16.964,0,30.766,13.802,30.766,30.765
			C430.372,894.54,416.571,908.341,399.607,908.341z"/>
		<path d="M399.607,851.207c-0.606,0-1.099,0.491-1.099,1.099v25.271h-16.48c-0.606,0-1.101,0.491-1.101,1.101
			c0,0.606,0.493,1.098,1.101,1.098h17.579c0.606,0,1.099-0.49,1.099-1.098v-26.371
			C400.705,851.698,400.214,851.207,399.607,851.207z"/>
	</g>
</g>
<g>
	<g>
		<path id="SlideShare" d="M563.651,866.069c-3.438,6.59-10.616,8.599-17.635,12.281c0,5.188,0,12.215,0,14.228
			c0,2.006-2.585,13.677-12.441,13.677c-9.859,0-13.113-5.646-13.113-7.983c0-1.142,0-7.226,0-13.184
			c-0.969-0.232-1.922-0.564-2.84-1.045c0,5.36,0,11.889,0,14.229c0,2.344-3.674,5.688-8.518,5.688
			c-4.845,0-14.198-6.856-14.198-11.382c0-4.521,0-15.403,0-15.403s-12.962-5.073-15.971-8.758c-3.01-3.688-4.513-5.19-3.676-7.362
			c0.805-2.104,10.525,6.022,16.205,7.362c5.686,1.34,15.539,2.011,19.718,1.845c4.18-0.168,6.52,1.506,8.855,3.68
			c0.125,0.115,0.271,0.238,0.422,0.36c0-1,0-1.641,0-1.641c0-2.006,5.347-2.846,8.521-2.846c3.177,0,12.525,0,14.194,0
			s14.625-4.244,17.634-7.597C563.817,858.875,566.884,859.875,563.651,866.069z M533.718,865.17c5.488,0,9.938-4.457,9.938-9.959
			c0-5.501-4.45-9.958-9.938-9.958c-5.485,0-9.938,4.457-9.938,9.958C523.781,860.713,528.232,865.17,533.718,865.17z
			 M507.529,865.17c5.488,0,9.939-4.457,9.939-9.959c0-5.501-4.45-9.958-9.939-9.958c-5.489,0-9.938,4.457-9.938,9.958
			C497.591,860.713,502.037,865.17,507.529,865.17z"/>
	</g>
</g>
</svg>
